<?xml version="1.0" encoding="utf-8"?>
<!-- Generator: Adobe Illustrator 22.1.0, SVG Export Plug-In . SVG Version: 6.00 Build 0)  -->
<svg version="1.1" id="Layer_1" xmlns="http://www.w3.org/2000/svg" xmlns:xlink="http://www.w3.org/1999/xlink" x="0px" y="0px"
	 viewBox="0 0 500 500" style="enable-background:new 0 0 500 500;" xml:space="preserve">
<style type="text/css">
	.st0{fill:#5A9E32;}
	.st1{opacity:0.3;}
	.st2{fill:#636363;}
	.st3{fill:#DEDEDE;}
	.st4{fill:#424242;}
	.st5{fill:#5E5E5E;}
	.st6{fill:#6B6C6C;}
	.st7{fill:#D9B49C;}
	.st8{fill:#D4D4D4;}
	.st9{fill:#B01500;}
	.st10{fill:#565656;}
	.st11{fill:#F7F7F7;}
	.st12{fill:#383838;}
	.st13{fill:#333333;}
	.st14{fill:#F0C7AD;}
	.st15{fill:#825D34;}
	.st16{fill:#F2F2F2;}
	.st17{fill:#CCCCCC;}
	.st18{fill:#808080;}
	.st19{fill:#A1A1A1;}
	.st20{fill:#3D3D3D;}
	.st21{fill:#E6BEA5;}
	.st22{fill:#B5B5B5;}
	.st23{fill:#FFFFFF;}
	.st24{fill:#CFCFCF;}
	.st25{fill:#941200;}
	.st26{fill:#B1342D;}
	.st27{fill:#A43029;}
	.st28{fill:#CA3B32;}
	.st29{fill:#982C26;}
	.st30{fill:#AF322B;}
	.st31{fill:#CC3A33;}
	.st32{fill:#C63B33;}
	.st33{fill:#A22F28;}
	.st34{fill:#B5342C;}
	.st35{fill:#C13830;}
	.st36{fill:#D93F36;}
	.st37{fill:#C03730;}
	.st38{fill:#962B25;}
	.st39{fill:#B1352D;}
	.st40{fill:#CB3B33;}
	.st41{fill:#CD3C33;}
	.st42{fill:#BA362E;}
	.st43{fill:#DA3F35;}
	.st44{fill:#B9362E;}
	.st45{fill:#A23029;}
	.st46{fill:#DB4037;}
	.st47{fill:#FF756D;}
	.st48{fill:#ADAD00;}
	.st49{fill:#AFB001;}
	.st50{fill:#AD312A;}
	.st51{fill:#ABAD01;}
	.st52{fill:#B9BB00;}
	.st53{fill:#C8C801;}
	.st54{fill:#AEB001;}
	.st55{fill:#D0D100;}
	.st56{fill:#C8CB01;}
	.st57{fill:#B8BA01;}
	.st58{fill:#BABC01;}
	.st59{fill:#C1C201;}
	.st60{fill:#A4A601;}
	.st61{fill:#C7C900;}
	.st62{fill:#DADB02;}
	.st63{fill:#C5C601;}
	.st64{fill:#ABAB00;}
	.st65{fill:#9C9E01;}
	.st66{fill:#D2D400;}
	.st67{fill:#FEFF2E;}
	.st68{fill:#3A7ED1;}
	.st69{fill:#2A5B97;}
	.st70{fill:#2D62A2;}
	.st71{fill:#2A5A95;}
	.st72{fill:#3573BD;}
	.st73{fill:#2A5D98;}
	.st74{fill:#3879C9;}
	.st75{fill:#3B82D4;}
	.st76{fill:#3674BF;}
	.st77{fill:#326EB5;}
	.st78{fill:#3779C6;}
	.st79{fill:#3F8BE1;}
	.st80{fill:#3169AE;}
	.st81{fill:#3571BC;}
	.st82{fill:#2A5B95;}
	.st83{fill:#3B7FD2;}
	.st84{fill:#3471B8;}
	.st85{fill:#3370B7;}
	.st86{fill:#2D609F;}
	.st87{fill:#3C82D5;}
	.st88{fill:#3779C5;}
	.st89{fill:#5CA7FF;}
</style>
<title>Artboard 16</title>
<rect x="-0.3" y="-0.7" class="st0" width="500" height="500"/>
<g class="st1">
	<ellipse transform="matrix(0.1881 -0.9822 0.9822 0.1881 -163.4978 371.1796)" cx="142.8" cy="284.5" rx="23.3" ry="40.3"/>
</g>
<path d="M144.8,280.3c1.7,1.1,8.5,1.1,8.5,1.1l1.8-2.4L144.8,280.3z"/>
<polygon class="st2" points="148.1,282.8 149.9,282 149.2,281 147.5,281.5 "/>
<path class="st3" d="M148.2,282.9c0,0-6-3.2-7-5.1c-0.1-1.1-0.1-2.2,0.1-3.3l7.5,5.8L148.2,282.9z"/>
<path class="st3" d="M169,285.5c0.1-2.2-3.9-3.7-8.2-6.4c-2.5-1.6-4.3-4.4-6.9-5.8c-7-3.6-9.9-7-11.9-3s-0.9,7.1,6.1,10.7
	c3.2,1.6,5.8,5.3,9.8,6.9C162.1,289.7,168.9,288,169,285.5z"/>
<path class="st4" d="M169.1,285c1-1.9-3.5-3.9-8.3-6.8c-2.4-1.4-6.2-4.7-7.2-6.9c-3.3-7.1-9.5-5.5-11.5-1.5s-0.8,6.9,6.2,10.5
	c3.2,1.6,6.4,5.6,10.4,7C162.5,288.7,168,287.2,169.1,285z"/>
<path class="st5" d="M154.7,272c-0.1,1.5-1-0.9-2.8,0.1c-4.3,2.5-9.8,2.7-10.1-1.8c2.1-16.5,0-27.9,2.6-35.9l-14.2-46l24-3.9
	c0,0,4.4,40.8,4.2,47.5C158.1,241.3,155.7,253.8,154.7,272z"/>
<path class="st2" d="M130.5,284.4c-0.2-2.2-0.2-4.4-0.1-6.5c0,0-10.5-5.1-11.4,4.7c-0.2,1.8,1.8,2.9,3.1,4.5
	C122.9,287,130.5,284.4,130.5,284.4z"/>
<path class="st3" d="M122.5,277.8c-1.4,0.8-3.3,1.9-3.6,4.8c-0.2,1.8,1.8,2.9,3.1,4.5l0,0L122.5,277.8z"/>
<path class="st3" d="M136.8,295.6c-0.9,1.8-8.4,2.4-12.1-1.6c-1.4-1.5-1.1-3.9-2-6.6c-1.7-5.1-4-4.1-3.7-6.8
	c0.9-9.8,10.9-4.9,10.9-4.9c1,3.8,2.2,7.5,3.7,11.1C135.5,291.4,138,293.2,136.8,295.6z"/>
<path class="st4" d="M136.5,295.4c-2.3,1.2-8.7,0.7-11.7-2.6c-1.4-1.5-1.1-3.9-2-6.6c-1.7-5.1-4-4.1-3.7-6.8
	c0.9-9.8,10.9-4.9,10.9-4.9c1,3.8,2.2,7.5,3.7,11.1C135.6,290.1,138.7,294.2,136.5,295.4z"/>
<path class="st6" d="M130.6,276.5c1.4-18,2.6-22.4,4-38.1c1.7-19.3,8.1-45.7,7.1-47.9c-1.9-4.3-22.8-3.7-23.9,0.6
	c-2.2,9.1,3.7,27.8,2.2,48.4c-1.6,14.4-0.4,32.7-0.3,37.2C122.5,279.6,126,275,130.6,276.5z"/>
<path class="st2" d="M166.3,150.8c-0.8-8.1-2.4-16.1-4.7-24c-1.5-4.9-6.4-10-11.8-9.4c-4.6,0.5-4.8,6.6-3.9,11.2
	c1.7,8.9,5.4,14.5,7.3,18.8c1.5,3.4,2.2,8.2,6.4,10.2C163,159.2,167,157.7,166.3,150.8z"/>
<path class="st7" d="M148.9,117.4l-12.8,5.5c0,0-4.4-9.3-3.4-10.8c-0.6-1.9-3-6.9-3-6.9l13.7-4.8L148.9,117.4z"/>
<path class="st8" d="M154.4,185.5c0.1,5.3-28,12.3-33.4,4.1l9.6-69.3L151,119L154.4,185.5z"/>
<polygon class="st9" points="148.7,149.3 146.7,152.5 143.8,149.1 142.6,122.6 144.3,122.3 "/>
<path class="st10" d="M123,122.4c-5.5,1.9-7.9,3.8-8.9,9.5c-1.4,8,8.1,21.5,7.3,33.2c-0.6,10.4-2.4,20.7-5.1,30.7
	c0.3,7.3,13.1,10.1,20.7,9.1c2-0.3,4.8-3.3,5.1-6.2c1.3-11.1,4.2-38.6,4.1-47c-0.1-7.6-15-35.6-16.4-33.8
	C128.6,119.8,124.8,121.8,123,122.4z"/>
<path class="st2" d="M158,149.2c4.4-1.3,7.9,1.8,9.9,5.2c3.3,5.8,4.5,8.7,5.2,14L161,167c-1.5-2.8-2.9-5.7-4.1-8.7
	C155.5,155,154.6,150.2,158,149.2z"/>
<path class="st10" d="M160,124.1c-1.8-4.7-8.6-8-13-6.4c2.1,1.8,3.5,9.1,4,16.7c0.5,6.8-5.5,13.7-5.1,17.8
	c0.7,7.7-2.8,35.3-4.2,46.3c-0.4,2.8,2.4,3.9,3.8,3.7c5.1-0.7,9.6-5.4,10.5-10.9c0,0-1.3-7.9-1.7-24.4
	C154.1,154.1,162.8,131.5,160,124.1z"/>
<path class="st11" d="M132.6,112.1c-0.9,4.3,8.6,7.7,10.8,7.3l-5.6,10.2c0,0-7.1-9.9-7-13.5C131,114.4,132.6,112.1,132.6,112.1z"/>
<path class="st11" d="M147.7,113.7c0,0-0.1,1-0.1,1.6c-0.2,2.7-4.1,4.2-4.1,4.2l5.9,9.4c0,0,1.1-8,0.6-11.1
	C149.8,116.9,147.7,113.7,147.7,113.7z"/>
<path class="st12" d="M147.6,113.9c0.5-0.1,2.5,1.6,3.5,2.9c1.5,1.9,5.2,9.3,5.2,9.3l-3.9,4l1.9,5.9l-8.1,14.4
	c-0.2-0.7,3.2-13.6,4-17.3c0.3-1.7-0.2-4.7-0.3-8.2C149.5,118.2,148.7,114.8,147.6,113.9z"/>
<path class="st12" d="M132,113c-0.6,0.4-2.1,6.1-3.6,7.5c-2.1,2,2.9,11.5,2.9,11.5l4.4-0.5l0.5,5.8l9.9,13.2
	c0-1.3-3.7-12.4-6.4-17.4C137.1,128.2,131.1,118,132,113z"/>
<path class="st13" d="M144.6,154.6c-0.6,0.4-1,1-1.1,1.7c0,0.6,0.4,0.9,1,0.6c0.6-0.4,1-1,1.1-1.7
	C145.6,154.5,145.2,154.3,144.6,154.6z"/>
<path class="st13" d="M143.8,165.6c-0.6,0.4-1,1-1.1,1.7c0,0.6,0.4,0.9,1,0.6c0.6-0.4,1-1,1.1-1.7
	C144.8,165.5,144.3,165.3,143.8,165.6z"/>
<path class="st13" d="M142.7,175c-0.6,0.4-1,1-1.1,1.7c0,0.6,0.4,0.9,1,0.6c0.6-0.4,1-1,1.1-1.7C143.7,175,143.2,174.7,142.7,175z"
	/>
<path class="st13" d="M140.9,187.9c-0.6,0.4-1,1-1.1,1.7c0,0.6,0.4,0.9,1,0.6c0.6-0.4,1-1,1.1-1.7
	C141.9,187.8,141.5,187.6,140.9,187.9z"/>
<path class="st14" d="M126,100c1.4,4.9,4.2,10.6,7.8,12.2c3.8,1.6,6.9,4.4,10.9,3.7c4.6-0.8,6.8-8.8,4.9-17.4
	c-0.3-1.6-0.9-4.7-1.2-6.3c-0.3-1.3,0.5-2.8-1.6-5.8c-2.8-4-8.4-5.2-14.1-3.6C123,85.4,123.3,90.1,126,100z"/>
<path class="st15" d="M149.8,110.6c0,2.6-1.3,4-3.5,5c-5.2,2.4-10.7-1.6-13.4-4c-1.6-1.3-2.2-9-2.2-9l1.8,0.1c0,0,0.7,5.8,2,7.3
	c1.8,2.1,8.4,6.2,11.7,3.1c0.7-0.6,1.3-1.9,1.9-2.3C148.5,110.4,149.2,110.4,149.8,110.6z"/>
<path class="st15" d="M132.6,82c5.4-1.6,12.5-0.4,15.1,5.1c0.4,0.9,2.3,2.6,0.9,3.2c-1.1-1.5-4.1,2.9-7.8,3.4
	c-3.6,0.5-4.4,1.3-7.8,5.4c-0.7,0.8-0.4,3.3-0.3,3.9c-0.5,0.3-1,0.6-1.4,1c-0.7-1.5-0.7-4.1-2.1-3.8c-1.5,0.3-1.1,2.5-0.4,4.3
	c0.5,1.2,1.7,4.1,1.8,4.6c-1,0.7-3.1-4.8-4.3-7.3C121.9,92.7,122.8,84.8,132.6,82z"/>
<path class="st15" d="M140.3,91.4l8.7-1.7c0.5-1.5-0.3-4.8-1.1-6.3c-1.3-2.4-4.3-0.8-7.1-1.5L140.3,91.4z"/>
<path class="st15" d="M143.9,108.2c0.3-2.2,2.2-4.4,4.2-4.8c0.2,0.7,0.2,1.4,0.1,2.2c-1.7,0.5-3.1,1.9-3.5,3.6
	C144.3,109.8,143.8,109.6,143.9,108.2z"/>
<path class="st15" d="M149.2,110.6c0.2-1.1,0.6-5.1-0.9-5c-0.1-0.7-0.2-1.4-0.1-2.2c2.4-0.3,2.3,5.8,1.6,7.5L149.2,110.6z"/>
<path class="st15" d="M144.4,114.4h1.5c-0.1-2.7-1.6-4-1-6.4l-0.7-0.2C143.6,110.2,144.5,111.7,144.4,114.4z"/>
<path class="st2" d="M113.9,163.2c4.1-6.9,7.8-14,11-21.4c1.6-2.1,1.6-13.9-3.3-16.4c-4.1-2.2-7.7,2.8-9.4,7.1
	c-3.5,8.3-6.5,17.2-7.3,21.8c-0.6,3.6-2.7,8-0.3,12C106.7,169.8,110.5,169.3,113.9,163.2z"/>
<path class="st16" d="M176.5,168.2c0.3,0.1,0.4,0.4,0.3,0.6c0,0.1-0.2,0.3-0.3,0.3l-31.3,18.2c-0.5,0.3-1.1,0.3-1.7,0l-17.2-9.9
	c-0.3-0.1-0.4-0.4-0.3-0.6c0-0.1,0.2-0.3,0.3-0.3l31.3-18.2c0.5-0.3,1.1-0.3,1.6,0L176.5,168.2z"/>
<g>
	<path class="st17" d="M176.8,168.8L176.8,168.8c0,0.1,0,0.1-0.1,0.1l0,0l-0.1,0.1c0,0-0.1,0-0.1,0.1c0,0,0,0-0.1,0.1v1.2l0,0
		c0,0,0,0,0.1,0c0,0,0.1,0,0.1-0.1l0,0c0,0,0.1,0,0.1-0.1l0,0l0,0l0,0c0,0,0,0,0-0.1l0,0l0,0l0,0c0,0,0,0,0-0.1l0,0v-1.2
		C176.9,168.8,176.8,168.8,176.8,168.8z"/>
	<path class="st18" d="M145.3,187.4c-0.5,0.3-1.1,0.3-1.7,0l-17.2-9.9c-0.2-0.1-0.3-0.3-0.3-0.5v1.2c0,0.2,0.2,0.4,0.3,0.5l17.2,9.9
		c0.5,0.3,1.1,0.3,1.7,0l31.3-18.2v-1.2L145.3,187.4z"/>
</g>
<polygon class="st19" points="142.4,177 140.8,177.9 139.5,177.1 141,176.2 "/>
<polygon class="st19" points="140.6,176 139.1,176.9 137.7,176.1 139.3,175.2 "/>
<polygon class="st19" points="143,172.6 141.4,173.5 140.1,172.7 141.7,171.8 "/>
<polygon class="st19" points="145.1,171.4 143.5,172.3 142.2,171.5 143.7,170.6 "/>
<polygon class="st19" points="157.5,164.2 155.9,165.1 154.6,164.3 156.1,163.4 "/>
<polygon class="st19" points="155.3,165.4 153.8,166.3 152.4,165.5 154,164.6 "/>
<polygon class="st19" points="153.3,166.6 151.7,167.5 150.4,166.7 151.9,165.8 "/>
<polygon class="st19" points="155,167.6 153.5,168.5 152.1,167.7 153.7,166.8 "/>
<polygon class="st19" points="158.5,169.6 156.9,170.5 155.6,169.7 157.1,168.8 "/>
<polygon class="st19" points="157.1,166.4 155.5,167.3 154.2,166.5 155.7,165.6 "/>
<polygon class="st19" points="160.5,168.4 159,169.3 157.6,168.5 159.2,167.6 "/>
<polygon class="st19" points="162.7,167.2 161.1,168.1 159.7,167.3 161.3,166.4 "/>
<polygon class="st19" points="160.9,166.2 159.4,167.1 158,166.3 159.6,165.4 "/>
<polygon class="st19" points="158.8,167.4 157.2,168.3 155.9,167.5 157.5,166.6 "/>
<polygon class="st19" points="156.8,168.6 155.2,169.5 153.8,168.7 155.4,167.8 "/>
<polygon class="st19" points="156.1,173 154.6,173.9 153.2,173.2 154.8,172.2 "/>
<polygon class="st19" points="168.7,165.7 167.1,166.7 165.8,165.9 167.3,165 "/>
<polygon class="st19" points="166.5,167 165,167.9 163.6,167.1 165.2,166.2 "/>
<polygon class="st19" points="164.4,168.2 162.9,169.1 161.5,168.3 163.1,167.4 "/>
<polygon class="st19" points="162.3,169.4 160.7,170.3 159.4,169.6 161,168.7 "/>
<polygon class="st19" points="160.3,170.6 158.7,171.5 157.3,170.8 158.9,169.9 "/>
<polygon class="st19" points="158.2,171.8 156.6,172.7 155.3,172 156.9,171 "/>
<polygon class="st19" points="156.4,170.8 154.9,171.7 153.5,170.9 155.1,170 "/>
<polygon class="st19" points="154.7,169.8 153.1,170.7 151.8,169.9 153.4,169 "/>
<polygon class="st19" points="152,175.4 150.5,176.3 149.1,175.5 150.7,174.6 "/>
<polygon class="st19" points="154.1,174.2 152.5,175.1 151.2,174.3 152.7,173.4 "/>
<g>
	<polygon class="st19" points="152.6,171 151.1,171.9 149.7,171.1 151.3,170.2 	"/>
	<polygon class="st19" points="148.9,171.2 147.3,172.1 145.9,171.3 147.5,170.4 	"/>
	<polygon class="st19" points="154.4,172 152.8,172.9 151.5,172.1 153,171.2 	"/>
	<polygon class="st19" points="150.6,172.2 149,173.1 147.7,172.3 149.2,171.4 	"/>
	<polygon class="st19" points="146.8,172.4 145.2,173.3 143.9,172.5 145.5,171.6 	"/>
	<polygon class="st19" points="152.3,173.2 150.8,174.1 149.4,173.3 151,172.4 	"/>
	<polygon class="st19" points="148.5,173.4 147,174.3 145.6,173.5 147.2,172.6 	"/>
	<polygon class="st19" points="144.7,173.6 143.2,174.5 141.8,173.7 143.4,172.8 	"/>
	<polygon class="st19" points="150.3,174.4 148.7,175.3 147.4,174.5 148.9,173.6 	"/>
	<polygon class="st19" points="146.5,174.6 144.9,175.5 143.6,174.7 145.1,173.8 	"/>
	<polygon class="st19" points="148.2,175.6 146.6,176.5 145.3,175.7 146.9,174.8 	"/>
	<polygon class="st19" points="144.4,175.8 142.9,176.7 141.5,175.9 143.1,175 	"/>
	<polygon class="st19" points="150,176.6 148.4,177.5 147.1,176.7 148.6,175.8 	"/>
	<polygon class="st19" points="146.2,176.8 144.6,177.7 143.2,176.9 144.8,176 	"/>
	<polygon class="st19" points="147.9,177.8 146.4,178.7 145,177.9 146.6,177 	"/>
	<polygon class="st19" points="144.1,178 142.5,178.9 141.2,178.1 142.8,177.2 	"/>
	<polygon class="st19" points="145.9,179 144.3,179.9 143,179.1 144.5,178.2 	"/>
	<polygon class="st19" points="142,179.2 140.5,180.1 139.1,179.3 140.7,178.4 	"/>
	<polygon class="st19" points="143.8,180.2 142.2,181.1 140.9,180.3 142.5,179.4 	"/>
</g>
<polygon class="st19" points="140,180.4 138.4,181.3 137.1,180.5 138.6,179.6 "/>
<polygon class="st19" points="138.3,179.4 136.7,180.3 135.3,179.5 136.9,178.6 "/>
<polygon class="st19" points="140.3,178.2 138.7,179.1 137.4,178.3 139,177.4 "/>
<polygon class="st19" points="138.6,177.2 137,178.1 135.7,177.3 137.2,176.4 "/>
<polygon class="st19" points="136.8,176.2 135.3,177.1 133.9,176.3 135.5,175.4 "/>
<polygon class="st19" points="136.5,178.4 135,179.3 133.6,178.5 135.2,177.6 "/>
<polygon class="st19" points="134.8,177.4 133.2,178.3 131.9,177.5 133.4,176.6 "/>
<polygon class="st19" points="138.9,175 137.3,175.9 136,175.1 137.6,174.2 "/>
<polygon class="st19" points="142.7,174.8 141.1,175.7 139.8,174.9 141.3,174 "/>
<polygon class="st19" points="141,173.8 139.4,174.7 138,173.9 139.6,173 "/>
<polygon class="st19" points="149.2,169 147.6,169.9 146.3,169.1 147.8,168.2 "/>
<polygon class="st19" points="147.1,170.2 145.6,171.1 144.2,170.3 145.8,169.4 "/>
<polygon class="st19" points="151.2,167.8 149.7,168.7 148.3,167.9 149.9,167 "/>
<polygon class="st19" points="153,168.8 151.4,169.7 150.1,168.9 151.6,168 "/>
<polygon class="st19" points="150.9,170 149.3,170.9 148,170.1 149.6,169.2 "/>
<g>
	<polygon class="st19" points="161.7,161.7 160.1,162.6 158.8,161.9 160.4,160.9 	"/>
	<polygon class="st19" points="159.6,163 158,163.9 156.7,163.1 158.2,162.2 	"/>
</g>
<polygon class="st19" points="161.3,164 159.7,164.9 158.4,164.1 160,163.2 "/>
<polygon class="st19" points="159.2,165.2 157.6,166.1 156.3,165.3 157.9,164.4 "/>
<polygon class="st19" points="163.4,162.7 161.9,163.6 160.5,162.9 162.1,161.9 "/>
<polygon class="st19" points="165.2,163.7 163.6,164.6 162.3,163.9 163.8,162.9 "/>
<polygon class="st19" points="166.9,164.7 165.3,165.6 164,164.9 165.6,163.9 "/>
<polygon class="st19" points="164.8,166 163.2,166.9 161.9,166.1 163.4,165.2 "/>
<polygon class="st19" points="163,165 161.5,165.9 160.1,165.1 161.7,164.2 "/>
<polygon class="st19" points="141.8,181.4 140.2,182.3 138.8,181.5 140.4,180.6 "/>
<path class="st20" d="M135.8,168.6c-1.5-0.7-3.8-1.6-5.6-2.6c-0.4,3.4-2,6.6-4.5,9c1.6,0.5,3,0.9,4.1,1.4
	C132.4,176.9,136.8,169.1,135.8,168.6z"/>
<path class="st21" d="M139,174.8l-0.8-4.2c0,0,3.2,0.5,4.2,0.7s1.2,1,2.8,1.3c0.8,0.2,1,0.9,0.5,1.3c-0.7,0.6-3.9-0.4-3.9-0.4
	L139,174.8z"/>
<path class="st22" d="M132.2,167.4c-2.5,2.4-4.8,4-3.7,8.1c1.8,0.8,3.3,1.3,4.3,1.6c3.8,0.5,7.1-5.9,5.7-6.8
	C137,169.4,134.6,168.6,132.2,167.4z"/>
<path class="st14" d="M141.9,181.6c1.9,0.1,5.7-0.7,5.8-2.5c0.1-2.2-5.3-6.1-7.8-7.7c-2.5-1.3-5.1-2.1-7.9-2.4
	c-1,1.4-1.9,2.9-2.8,4.4c1.8,1.1,3.4,2.5,4.6,4.3c0.9,1.2,2.9,1.5,4.3,2.3C139.6,180.8,140.4,181.5,141.9,181.6z"/>
<path class="st23" d="M132.1,167.3c-2.5,2.4-4.7,4.1-3.6,8.2c1.8,0.8,3.3,1.3,4.3,1.6c-0.8-5.2,2.8-8.7,5.7-6.9
	C136.4,169.2,134.3,168.2,132.1,167.3z"/>
<path class="st2" d="M135.9,168.6c-6.9-3.5-13.9-6.7-21.1-9.6c-3.7-1.3-9.2,0.1-11,4c-1.6,3.3,2.4,5.9,5.8,7.2
	c6.6,2.5,16.5,4.9,20.2,6.2C128.8,170.7,132.6,167,135.9,168.6z"/>
<g>
	<path class="st23" d="M183.7,148.9c-0.2-0.1-0.4-0.1-0.6,0.1l-31.5,18.2c-0.5,0.3-0.8,0.8-0.8,1.4l-6.3,18.8c0,0.2,0.1,0.4,0.2,0.5
		l1,0.6c-0.2-0.1-0.3-0.3-0.2-0.5l6.3-18.8c0-0.6,0.3-1.1,0.8-1.4l31.5-18.2c0.2-0.1,0.4-0.1,0.6-0.1L183.7,148.9z"/>
	<path class="st24" d="M184.1,149.6c0.5-0.3,0.8-0.1,0.8,0.5l-6.3,18.8c0,0.6-0.3,1.1-0.8,1.4l-31.5,18.2c-0.5,0.3-0.8,0.1-0.8-0.5
		l6.3-18.8c0-0.6,0.3-1.1,0.8-1.4L184.1,149.6z"/>
</g>
<path class="st14" d="M175.8,171.4c0-1.1,0.3-0.8,0.7-2.4c0.2-0.8,1.3-1.3,1.5-0.6c0.2,0.8,0.2,1.6,0,2.5
	C177.9,171.4,175.8,172.4,175.8,171.4z"/>
<path class="st14" d="M169.7,175c1.5,1.1,5.4-1.3,6.5-2.7c0.6-0.8,0-3.1-0.7-3.8c-1.3-1.1-4.5,0.7-5.3,2.1
	C169.7,171.4,168.8,174.4,169.7,175z"/>
<path class="st25" d="M145.1,122l-1.2,1.8c-0.2,0.2-0.5,0.3-0.7,0.1c-0.1,0-0.1-0.1-0.1-0.1l-1.2-1.8c-0.1-0.2-0.1-0.4,0-0.6
	l1.2-1.8c0.2-0.2,0.5-0.3,0.7-0.1c0.1,0,0.1,0.1,0.1,0.1l1.2,1.8C145.2,121.6,145.2,121.8,145.1,122z"/>
<g class="st1">
	<g>
		<polygon points="179,320.7 348.7,419.3 366.7,409 196.9,310.3 		"/>
	</g>
</g>
<polygon class="st26" points="214.1,328.7 226.9,321.1 234.9,315.6 222.2,323.1 "/>
<polygon class="st27" points="199.5,274.6 212.3,267.1 202,266.5 189.2,274 "/>
<polygon class="st28" points="248.3,355.8 261.1,348.3 262.2,336.8 249.5,344.3 "/>
<path class="st29" d="M192.7,234.3l12.8-7.5c-0.7,0.1-1.1,0.1-1.8,0.1l-12.8,7.5C191.6,234.4,192,234.3,192.7,234.3z"/>
<polygon class="st30" points="204,243.6 216.8,236.1 205.5,226.8 192.7,234.3 "/>
<path class="st31" d="M280.1,361.8l12.8-7.5c0.2-0.8,0.3-1.3,0.4-2.1l-12.8,7.5C280.3,360.5,280.2,361,280.1,361.8L280.1,361.8z"/>
<polygon class="st32" points="280.5,359.7 293.3,352.2 287.2,336.7 274.5,344.2 "/>
<path class="st33" d="M243,322.8c-15.7-9.1-28.4-31.1-28.3-49.1c0-9,3.2-15.3,8.3-18.2l12.8-7.5c-5.1,3-8.3,9.3-8.3,18.2
	c-0.1,18,12.7,40.1,28.3,49.1c7.9,4.6,15,5,20.2,2l-12.8,7.5C258.1,327.8,250.9,327.4,243,322.8z"/>
<polygon class="st27" points="212.3,216.9 225.1,209.3 218.9,211 206.1,218.5 "/>
<path class="st34" d="M282.2,336.6l12.8-7.5c-1.9,3.1-4.6,5.7-7.8,7.6l-12.8,7.5C277.6,342.4,280.3,339.8,282.2,336.6z"/>
<polygon class="st35" points="222.4,233.1 235.2,225.6 227.2,210.8 214.4,218.3 "/>
<path class="st29" d="M214.4,218.3l12.8-7.5c-0.8-0.5-1.3-0.9-2.1-1.4l-12.8,7.5C213.1,217.4,213.6,217.7,214.4,218.3z"/>
<path class="st29" d="M222.4,233.1l12.8-7.5c4.9-0.1,9.8,0.9,14.3,2.9l-12.8,7.5C232.2,234,227.4,233,222.4,233.1z"/>
<polygon class="st36" points="295.3,345.9 308.1,338.3 310.5,331.4 297.7,338.9 "/>
<polygon class="st26" points="296.9,336.2 309.7,328.7 299.4,317.4 286.6,324.9 "/>
<path class="st31" d="M297.7,338.9l12.8-7.5c-0.3-1-0.5-1.7-0.8-2.7l-12.8,7.5C297.2,337.2,297.4,337.9,297.7,338.9L297.7,338.9z"/>
<path class="st37" d="M287.5,315.7c0-3.4-0.3-6.7-0.8-10.1l12.8-7.5c0.5,3.3,0.8,6.7,0.8,10.1c0,3.1-0.3,6.1-0.8,9.2l-12.8,7.5
	C287.2,321.9,287.5,318.8,287.5,315.7z"/>
<path class="st29" d="M239.5,223.8l12.8-7.5c-0.6,0.3-1,0.4-1.6,0.7l-12.8,7.5C238.5,224.2,238.9,224,239.5,223.8L239.5,223.8z"/>
<polygon class="st38" points="247.1,228.2 259.9,220.7 252.2,216.2 239.5,223.8 "/>
<path class="st29" d="M249.7,243.5l12.8-7.5c5.3,4,10.1,8.6,14.3,13.7l-12.8,7.5C259.8,252,255,247.5,249.7,243.5z"/>
<path class="st39" d="M247.5,228.8c-0.1-0.2-0.3-0.4-0.4-0.7l12.8-7.5c0.1,0.2,0.3,0.5,0.4,0.7c0.4,0.6,0.7,1.1,1.1,1.8l-12.8,7.5
	C248.2,230,247.9,229.5,247.5,228.8z"/>
<polygon class="st40" points="249.7,243.5 262.5,235.9 261.4,223.2 248.7,230.7 "/>
<path class="st41" d="M274.7,272.4l12.8-7.5c3,5.3,5.6,10.8,7.7,16.5l-12.8,7.5C280.3,283.2,277.7,277.6,274.7,272.4z"/>
<path class="st42" d="M297,306.2l12.8-7.5c0.3-0.7,0.5-1.1,0.8-1.7l-12.8,7.5C297.5,305.2,297.3,305.6,297,306.2z"/>
<polygon class="st38" points="293.6,292.5 306.4,285 295.1,281.4 282.4,288.9 "/>
<polygon class="st43" points="297.8,304.5 310.6,297 308.2,287.2 295.4,294.8 "/>
<path class="st30" d="M295.4,294.8l12.8-7.5c-0.7-0.9-1.1-1.4-1.8-2.2l-12.8,7.5C294.3,293.4,294.7,293.9,295.4,294.8z"/>
<polygon class="st44" points="274.7,272.4 287.4,264.9 293.5,256.4 280.8,263.9 "/>
<path class="st45" d="M274.2,252.6l12.8-7.5c-0.8-0.4-1.3-0.6-2.1-1l-12.8,7.5C272.9,252,273.4,252.2,274.2,252.6z"/>
<path class="st46" d="M280.8,263.9l12.8-7.5c-0.2-1-0.3-1.6-0.4-2.6l-12.8,7.5C280.5,262.3,280.6,262.9,280.8,263.9L280.8,263.9z"/>
<path class="st47" d="M286.7,305.7l10.3,0.6c0.3-0.7,0.5-1.1,0.8-1.7l-2.4-9.8c-0.7-0.9-1.1-1.4-1.8-2.2l-11.3-3.7
	c-2.1-5.7-4.7-11.2-7.7-16.5l6.1-8.5c-0.2-1-0.3-1.6-0.4-2.6l-6.2-8.8c-0.8-0.4-1.3-0.6-2.1-1l-8.1,5.5c-4.2-5.1-9-9.7-14.3-13.7
	l-1.1-12.8c-0.4-0.7-0.8-1.2-1.1-1.8c-0.1-0.2-0.3-0.4-0.4-0.7l-7.7-4.4c-0.6,0.3-1,0.4-1.6,0.7l-1.2,11.5c-4.5-2-9.4-2.9-14.3-2.9
	l-8-14.8c-0.8-0.5-1.3-0.9-2.1-1.4l-6.2,1.6c-0.2,0.8-0.3,1.3-0.4,2.1l6,15.5c-3.2,1.9-5.8,4.5-7.8,7.6l-11.3-9.4
	c-0.7,0.1-1.1,0.1-1.8,0.1l-2.4,7c0.3,1,0.5,1.7,0.8,2.7l10.3,11.3c-0.6,3-0.8,6.1-0.8,9.2c0,3.4,0.3,6.7,0.8,10.1l-10.3-0.6
	c-0.3,0.7-0.5,1.1-0.8,1.7l2.4,9.8c0.7,0.9,1.1,1.4,1.8,2.2l11.3,3.7c2.1,5.7,4.7,11.2,7.7,16.5l-6.1,8.5c0.2,1,0.3,1.6,0.4,2.6
	l6.2,8.8c0.8,0.4,1.3,0.6,2.1,1l8.1-5.5c4.2,5.1,9,9.7,14.3,13.7l1.1,12.8c0.6,0.9,0.9,1.5,1.5,2.5l7.7,4.4c0.6-0.3,1-0.4,1.6-0.7
	l1.1-11.5c4.5,2,9.4,2.9,14.3,2.9l8,14.8c0.8,0.5,1.3,0.9,2.1,1.4l6.2-1.6c0.2-0.8,0.3-1.3,0.4-2.1l-6-15.5c3.2-1.9,5.8-4.5,7.8-7.6
	l11.3,9.4c0.7-0.1,1.1-0.1,1.8-0.1l2.4-7c-0.3-1-0.5-1.7-0.8-2.7L286.6,325c0.6-3,0.8-6.1,0.8-9.2
	C287.4,312.4,287.2,309,286.7,305.7z M243.2,257.5c15.7,9.1,28.4,31.1,28.3,49.1s-12.9,25.3-28.5,16.3s-28.4-31.1-28.3-49.1
	C214.7,255.7,227.5,248.4,243.2,257.5L243.2,257.5z"/>
<polygon class="st48" points="241.6,210.7 281.1,187.7 272.7,189.9 233.2,212.9 "/>
<polygon class="st49" points="269,255.6 281.7,248 282.7,237.9 270,245.5 "/>
<path class="st50" d="M274.2,252.6l12.8-7.5c-0.8-0.4-1.3-0.6-2.1-1l-12.8,7.5C272.9,252,273.4,252.2,274.2,252.6z"/>
<path class="st51" d="M238.7,177.5l12.8-7.5c-0.8-0.2-1.2-0.3-2-0.4l-12.8,7.5C237.5,177.2,238,177.3,238.7,177.5L238.7,177.5z"/>
<path class="st52" d="M263.7,224.5c-4.1-2.7-6.7-7.1-6.9-12c0-2.2,0.8-3.7,2-4.5l12.8-7.5c-1.2,0.7-2,2.3-2,4.5
	c0.3,4.9,2.8,9.3,6.9,12c1.9,1.1,3.7,1.2,4.9,0.5l-12.8,7.5C267.3,225.8,265.6,225.7,263.7,224.5z"/>
<polygon class="st53" points="248.5,188.2 261.2,180.7 251.5,170 238.7,177.5 "/>
<path class="st54" d="M248.5,188.2l12.8-7.5c2.8-1.2,6-1.4,8.9-0.5l-12.8,7.4C254.4,186.8,251.3,187,248.5,188.2z"/>
<path class="st55" d="M294.5,250.7l12.8-7.5c-0.2-1-0.3-1.6-0.4-2.6l-12.8,7.5C294.3,249.1,294.4,249.7,294.5,250.7z"/>
<polygon class="st56" points="290.6,256.1 303.4,248.5 307.3,243.2 294.5,250.7 "/>
<polygon class="st57" points="294.1,248.1 306.9,240.6 298.5,228.6 285.7,236.1 "/>
<path class="st55" d="M286.5,229.8c0-2.5-0.3-4.9-0.8-7.3l12.8-7.5c0.5,2.4,0.8,4.8,0.8,7.3c0,2.2-0.3,4.3-0.8,6.4l-12.8,7.5
	C286.3,234.1,286.6,231.9,286.5,229.8z"/>
<path class="st58" d="M260,176.8l12.8-7.5c-0.6,0.3-1,0.4-1.6,0.7l-12.8,7.5C259,177.3,259.4,177.1,260,176.8L260,176.8z"/>
<path class="st59" d="M270.1,195l12.8-7.5c3.4,3.2,6.4,6.8,8.9,10.8l-12.8,7.5C276.6,201.8,273.6,198.2,270.1,195z"/>
<polygon class="st60" points="267.6,181.3 280.4,173.7 272.7,169.3 260,176.8 "/>
<path class="st61" d="M269.2,183.8l12.8-7.5c-0.6-1-1-1.5-1.5-2.5l-12.8,7.5C268.2,182.2,268.6,182.8,269.2,183.8L269.2,183.8z"/>
<polygon class="st62" points="270.1,195 282.9,187.5 281.9,176.2 269.2,183.8 "/>
<path class="st63" d="M294.2,220.2l12.8-7.5c0.2-0.8,0.3-1.3,0.4-2.1l-12.8,7.5C294.5,218.9,294.4,219.4,294.2,220.2z"/>
<polygon class="st64" points="288.8,206.4 301.5,198.9 291.8,198.3 279,205.8 "/>
<path class="st65" d="M290.8,208.3l12.8-7.5c-0.8-0.7-1.2-1.2-2-1.9l-12.8,7.5C289.5,207.1,290,207.5,290.8,208.3z"/>
<polygon class="st66" points="294.6,218.1 307.4,210.6 303.5,200.7 290.8,208.3 "/>
<path class="st67" d="M285.8,222.5l8.4-2.3c0.2-0.8,0.3-1.3,0.4-2.1l-3.9-9.8c-0.8-0.7-1.2-1.2-2-1.9l-9.8-0.6
	c-2.5-4-5.4-7.6-8.9-10.8l-0.9-11.2c-0.6-1-1-1.5-1.5-2.5l-7.7-4.4c-0.6,0.3-1,0.4-1.6,0.7l-1,10.1c-3-0.8-6.1-0.6-8.9,0.5
	l-9.7-10.7c-0.8-0.2-1.2-0.3-2-0.4l-3.9,5.4c0.2,1,0.3,1.6,0.4,2.6l8.4,12c-0.5,2.1-0.8,4.2-0.8,6.4c0,2.5,0.3,4.9,0.8,7.3l-8.4,2.3
	c-0.2,0.8-0.3,1.3-0.4,2.1l3.9,9.8c0.8,0.7,1.2,1.2,2,1.9l9.8,0.6c2.5,4,5.4,7.6,8.9,10.8l1,11.2c0.6,0.9,0.9,1.5,1.5,2.5l7.7,4.4
	c0.6-0.3,1-0.4,1.6-0.7l1-10.1c3,0.8,6.1,0.6,8.9-0.5l9.7,10.7c0.8,0.2,1.2,0.3,2,0.4l3.9-5.4c-0.2-1-0.3-1.6-0.4-2.6l-8.4-12
	c0.5-2.1,0.8-4.2,0.8-6.4C286.5,227.3,286.3,224.9,285.8,222.5z M263.7,208.6c4.1,2.7,6.7,7.1,6.9,12c0,4.4-3.1,6.2-7,4
	c-4.1-2.7-6.7-7.1-6.9-12C256.7,208.1,259.9,206.4,263.7,208.6z"/>
<polygon class="st68" points="336.7,355.5 376.2,332.5 377.3,321.5 337.7,344.5 "/>
<polygon class="st69" points="285.9,275.3 307.6,262.6 297.5,258 284.7,265.5 "/>
<path class="st70" d="M331.4,323.1c-11.7-6.8-21.2-23.3-21.2-36.7c0-6.7,2.4-11.4,6.2-13.6l12.8-7.5c-3.8,2.2-6.2,6.9-6.2,13.6
	c0,13.5,9.5,30,21.2,36.7c5.9,3.4,11.3,3.7,15.1,1.5l-12.8,7.5C342.6,326.9,337.3,326.6,331.4,323.1z"/>
<polygon class="st71" points="299.2,236.6 312,229.1 306.5,232.2 293.8,239.7 "/>
<path class="st72" d="M369.1,357.7l12.8-7.5c0-0.9,0.1-1.4,0.1-2.3l-12.8,7.5C369.1,356.2,369.1,356.8,369.1,357.7z"/>
<path class="st73" d="M301.3,237.7l12.8-7.5c-0.8-0.4-1.3-0.7-2.1-1.1l-12.8,7.5C300,237.1,300.5,237.3,301.3,237.7z"/>
<polygon class="st74" points="369.2,355.3 382,347.8 374.7,333.2 361.9,340.7 "/>
<polygon class="st75" points="310.3,251.4 323.1,243.8 314.1,230.2 301.3,237.7 "/>
<path class="st76" d="M368,327.2l12.8-7.5c-1,5.7-3.1,10.2-6.1,13.5l-12.8,7.5C364.9,337.5,367.1,332.9,368,327.2z"/>
<path class="st73" d="M310.3,251.4l12.8-7.5c4.3-1,9.4-0.5,14.8,1.5l-12.8,7.5C319.7,250.9,314.7,250.4,310.3,251.4z"/>
<path class="st77" d="M378.1,331.8l12.8-7.5c0.5-0.4,0.9-0.6,1.4-1l-12.8,7.5C379,331.2,378.7,331.5,378.1,331.8L378.1,331.8z"/>
<path class="st73" d="M327.8,241.2l12.8-7.5c-0.6,0.3-1,0.4-1.6,0.7l-12.8,7.5C326.8,241.6,327.2,241.5,327.8,241.2L327.8,241.2z"/>
<path class="st78" d="M362,292l12.8-7.5c3,6.5,5,13.4,6,20.5l-12.8,7.5C367,305.4,365,298.5,362,292z"/>
<polygon class="st79" points="379.5,330.9 392.3,323.4 392.3,314.5 379.5,322.1 "/>
<path class="st69" d="M338,260.3l12.8-7.5c5.6,4.5,10.6,9.7,14.7,15.5l-12.8,7.5C348.6,270,343.6,264.8,338,260.3z"/>
<polygon class="st80" points="378.2,319.5 390.9,312 380.8,304.9 368.1,312.4 "/>
<path class="st81" d="M379.5,322.1l12.8-7.5c-0.5-1-0.9-1.6-1.4-2.6l-12.8,7.5C378.7,320.5,379,321.1,379.5,322.1L379.5,322.1z"/>
<polygon class="st82" points="335.4,245.6 348.2,238.1 340.5,233.7 309.9,251.5 "/>
<polygon class="st83" points="338,260.3 350.8,252.8 349.7,240.6 337,248.1 "/>
<path class="st84" d="M336.6,247.5c-0.4-0.6-0.7-1.1-1.1-1.8l12.8-7.5c0.4,0.7,0.8,1.2,1.1,1.8c0.1,0.2,0.3,0.4,0.4,0.7l-12.8,7.5
	C336.8,247.9,336.7,247.7,336.6,247.5z"/>
<polygon class="st85" points="362,292 374.8,284.4 382.2,278.3 369.4,285.8 "/>
<polygon class="st86" points="361.8,272.7 374.6,265.1 365.5,268.3 352.7,275.8 "/>
<path class="st87" d="M369.4,285.8l12.8-7.5c0-0.9-0.1-1.5-0.1-2.4l-12.8,7.5C369.3,284.3,369.4,284.8,369.4,285.8z"/>
<polygon class="st88" points="369.3,283.3 382.1,275.8 376.7,266.5 363.9,274 "/>
<path class="st73" d="M363.9,274l12.8-7.5c-0.8-0.5-1.3-0.8-2.1-1.3l-12.8,7.5C362.6,273.2,363.1,273.5,363.9,274z"/>
<path class="st89" d="M378.1,331.8c0.5-0.4,0.9-0.6,1.4-1V322c-0.5-1-0.9-1.6-1.4-2.6l-10.1-7c-1-7.1-3.1-14-6-20.5l7.4-6.2
	c0-0.9-0.1-1.5-0.1-2.4l-5.4-9.4c-0.8-0.5-1.3-0.8-2.1-1.3l-9.1,3.2c-4.2-5.8-9.1-11.1-14.7-15.5l-1-12.2c-0.1-0.2-0.3-0.5-0.4-0.7
	c-0.4-0.6-0.7-1.1-1.1-1.8l-7.7-4.4c-0.6,0.3-1,0.4-1.6,0.7l-1.1,11c-5.4-2-10.4-2.5-14.8-1.5l-9-13.6c-0.8-0.4-1.3-0.7-2.1-1.1
	l-5.4,3.1c0,0.9-0.1,1.4-0.1,2.3l7.3,14.6c-3,3.2-5.2,7.8-6.1,13.5l-10.1-4.6c-0.5,0.4-0.9,0.6-1.4,1v8.8c0.5,1,0.9,1.6,1.4,2.6
	l10.1,7c1,7.1,3.1,14,6,20.5l-7.4,6.2c0,0.9,0.1,1.5,0.1,2.5l5.4,9.4c0.8,0.5,1.3,0.8,2.1,1.3l9.1-3.2c4.2,5.8,9.1,11.1,14.7,15.5
	l1,12.2c0.6,1,0.9,1.5,1.5,2.5l7.7,4.4c0.6-0.3,1-0.4,1.6-0.7l1.1-11c5.4,2,10.4,2.5,14.8,1.5l9,13.6c0.8,0.4,1.3,0.7,2.1,1.1
	l5.4-3.1c0-0.9,0.1-1.4,0.1-2.3l-7.3-14.6c3-3.2,5.2-7.8,6.1-13.5L378.1,331.8z M331.5,274.2c11.7,6.8,21.2,23.3,21.2,36.7
	c0,13.5-9.6,18.9-21.3,12.2c-11.7-6.8-21.2-23.3-21.2-36.7C310.2,272.9,319.8,267.5,331.5,274.2L331.5,274.2z"/>
<path class="st47" d="M189.2,274l10.3,0.6c-0.5-3.3-0.8-6.7-0.8-10.1c0-3.1,0.3-6.1,0.8-9.2L189.2,244c-0.3-1-0.5-1.7-0.8-2.7l2.4-7
	c0.7-0.1,1.1-0.1,1.8-0.1l11.3,9.4c1.9-3.1,4.6-5.7,7.8-7.6l-6-15.5c0.2-0.8,0.3-1.3,0.4-2.1l6.2-1.6c0.8,0.5,1.3,0.9,2.1,1.4
	l8,14.8c4.9-0.1,9.8,0.9,14.3,2.9l1-10c0.3,0.2,0.5,0.5,0.8,0.8l6.7,0.4l1.9,1.1c0.1,0.2,0.3,0.5,0.4,0.7c0.4,0.6,0.7,1.1,1.1,1.8
	l1.1,12.8c5.3,4,10.1,8.6,14.3,13.7l2.2-1.5l2.9-2l2.9-2c0.8,0.4,1.3,0.6,2.1,1l6.2,8.8c0.2,1,0.3,1.6,0.4,2.6l-6.1,8.5
	c3,5.3,5.6,10.8,7.7,16.5l11.3,3.7c0.7,0.9,1.1,1.4,1.8,2.2l2.4,9.8c-0.3,0.7-0.5,1.1-0.8,1.7l-10.3-0.6c0.5,3.3,0.8,6.7,0.8,10.1
	c0,3.1-0.3,6.1-0.8,9.2l10.3,11.3c0.3,1,0.5,1.7,0.8,2.7l-2.4,7c-0.7,0.1-1.1,0.1-1.8,0.1l-11.3-9.4c-1.9,3.1-4.6,5.7-7.8,7.6
	l6,15.5c-0.2,0.8-0.3,1.3-0.4,2.1l-6.2,1.6c-0.8-0.5-1.3-0.9-2.1-1.4l-8-14.8c-4.9,0.1-9.8-0.9-14.3-2.9l-1.1,11.5
	c-0.6,0.3-1,0.4-1.6,0.7l-7.7-4.4c-0.6-1-1-1.5-1.5-2.5l-1.1-12.8c-5.3-4-10.1-8.6-14.3-13.7l-8.1,5.5c-0.8-0.4-1.3-0.6-2.1-1
	l-6.2-8.8c-0.2-1-0.3-1.6-0.4-2.6l6.1-8.5c-3-5.3-5.6-10.8-7.7-16.5l-11.3-3.7c-0.7-0.9-1.1-1.4-1.8-2.2l-2.4-9.8
	C188.7,275.1,188.9,274.7,189.2,274z M243,322.8c15.7,9.1,28.5,1.8,28.5-16.3c0.1-18-12.7-40-28.3-49.1
	c-15.6-9.1-28.5-1.8-28.5,16.3C214.6,291.7,227.3,313.8,243,322.8z"/>
</svg>
